<svg xmlns="http://www.w3.org/2000/svg" version="1.1" xmlns:xlink="http://www.w3.org/1999/xlink" xmlns:svgjs="http://svgjs.dev/svgjs" width="1500" height="1500" viewBox="0 0 1500 1500"><rect width="1500" height="1500" fill="#ffffff"></rect><g transform="matrix(0.6666666666666666,0,0,0.6666666666666666,250,187.66666666666674)"><svg viewBox="0 0 320 360" data-background-color="#ffffff" preserveAspectRatio="xMidYMid meet" height="1687" width="1500" xmlns="http://www.w3.org/2000/svg" xmlns:xlink="http://www.w3.org/1999/xlink"><g id="tight-bounds" transform="matrix(1,0,0,1,0,0)"><svg viewBox="0 0 320 360" height="360" width="320"><g><svg></svg></g><g><svg viewBox="0 0 320 360" height="360" width="320"><g><path d="M219.58 41.008c0.707 0 6.365 2.829 9.547 3.89-1.061 0.354-3.536-0.707-6.365-1.768 0.707 0 2.122 0.354 3.536 1.06-0.707-0.707-6.011-2.475-6.718-3.182M166.895 30.047c1.061-0.354 13.436 1.414 19.094 1.768 0.354-0.354-0.707-0.354-2.122-0.707 1.768-0.354 5.304 0.707 7.779 1.06-7.425 0.354-15.558-1.768-22.629-1.06-2.475 0-0.707-0.707-2.122-1.061M156.641 30.047c6.365 0 11.315 0 2.121 0.707-1.061-0.354-2.475-0.354-2.121-0.707M256.707 59.395c0.707 0 3.536 3.182 4.95 4.243-0.354 0.354-3.182-2.475-4.596-3.536 0.354 0.354 0 0-0.354-0.707M249.635 54.798c-2.829-2.475-3.889-2.475-4.243-3.889 2.475 1.414 4.243 2.829 4.243 3.889M204.022 32.522c0.354-0.354 1.061 0.354 2.829 0.707-2.122-0.354-1.768 0-1.061 0.707-2.475-0.354-3.182-0.707-2.475-1.414 1.414 0.707 1.768 0.354 0.707 0M103.602 36.765c0-0.354 1.414-1.061 2.475-1.414-1.061 0.707-0.707 1.061 1.061 0.353 0 0.354-2.122 1.061-3.536 1.768 0.707-0.354 1.414-1.414 0-0.707M211.094 28.986c-1.061 0.354-4.95-1.768-8.84-2.475-2.122-0.707 8.486 1.768 8.84 2.475M2.475 203.66c2.122 8.84 0.707 8.486 0 0M2.829 150.621c0.354-1.414 0.707-5.304 1.06-4.95-1.061 8.486-2.829 12.376-3.182 18.74 1.061-5.657-0.354 3.182-0.707 5.304 0.354 2.829 0.354-1.768 1.061-1.06 0.707 1.061-1.414 15.912-0.707 7.779-0.707 7.425 0 15.558 1.414 17.679-1.768 11.315 7.072 36.773 8.84 42.077 0.354 0.354 0-1.768 0.707-0.353 0.707 4.597 3.889 7.779 4.95 12.729 1.061 1.414 5.304 9.193 6.011 10.962 1.414 2.829 2.122 2.475 3.536 5.303 4.243 8.133 10.961 15.912 17.326 23.337 20.508 24.044 51.978 43.845 86.984 50.918 35.006 7.425 71.779 2.122 100.419-11.669 1.768-1.061 1.414-1.414 3.536-2.122 9.901-3.182 21.923-13.436 28.641-17.326 3.182-3.536 11.669-9.547 12.73-13.082 6.011-4.95 12.022-13.083 15.204-18.387 1.768-2.829 3.182-2.829 3.889-4.597-0.354 0 5.657-7.425 7.426-11.668-0.707 0-1.768 2.122-1.768 0 12.729-24.398 19.801-57.282 15.911-79.912 0.707 27.934-6.365 59.05-19.801 78.851-6.011 12.729-18.387 26.519-29.701 36.42-1.768 1.768-3.536 3.889-5.658 5.304-6.718 5.657-14.144 10.254-21.922 14.497-18.387 10.254-38.895 19.094-62.94 19.447 41.37-3.536 78.497-24.398 99.006-49.856-15.558 15.204-22.276 21.215-39.602 30.055-1.414 2.475-13.083 7.425-20.862 9.547 4.597-2.122 14.144-5.657 17.326-8.486-25.812 12.376-54.453 19.448-81.326 15.558 10.254 0 24.751 0.354 38.541-2.121 2.122-0.707 3.182-1.414 5.658-1.768 26.873-6.011 52.685-19.094 71.072-37.481-10.608 9.547-26.519 20.862-36.774 24.398 9.547-5.304 26.873-15.558 32.53-23.337-11.315 11.315-32.53 22.63-45.966 27.58-2.122 0.354 1.414-1.414-2.122 0-4.243 1.061-2.475 1.061-3.536 1.768-16.265 4.597-35.006 8.486-50.563 7.072-2.829-0.354-3.889-1.061-6.365-1.061-2.829-0.354-5.304-0.354-8.486-0.354-12.376-1.414-25.812-6.365-35.713-10.607-5.304-2.475-10.608-4.243-15.912-7.426-4.243-2.475-7.779-5.304-11.314-8.132-13.436-9.901-24.751-19.801-35.36-33.945-19.094-26.519-28.994-59.757-27.58-92.641 1.414-32.884 14.497-65.061 35.359-88.752-1.061 1.061 1.414-2.475 3.536-4.596 0 0.707-0.354 1.768 2.122-0.707 2.122-2.475-0.707-0.707 0.353-2.122 21.923-24.044 60.111-43.492 99.36-44.199 1.414-1.061 3.889-2.475 6.718-1.768 0 0.354-1.768 0.354-1.768 0.354 3.889-0.354 7.425-0.354 9.193 0.353 0.354-0.354-1.414-0.707 0-0.707 2.475 0.707 3.182 0 4.597 0.707-1.061 0-2.122 0-2.829 0.354 8.84 0 14.497 2.122 23.337 2.829-4.597-1.061-5.657-1.061-9.193-2.122 3.889 0.707 5.657 1.414 7.425 1.061-0.707 0-0.354-1.061 0.354-0.707 7.072 1.768 7.779 2.475 15.204 4.95 0.707-0.707-3.182-1.061-4.243-2.122 7.072 2.475 13.436 4.243 17.68 7.072-1.414-1.061-5.657-2.475-8.84-3.889-0.354 0.354 1.061 0.707 1.414 1.414-3.536-1.768-8.486-3.536-13.436-4.243 4.243 1.061 7.072 2.475 8.84 3.182-3.889-0.707-8.84-3.182-14.498-4.243 9.193 2.829 26.519 9.193 37.127 14.851-3.889-2.475-8.486-4.243-10.961-5.657 2.122 0.354 4.597 1.768 4.597 1.06 2.475 1.061 5.657 3.536 7.425 3.89-3.182-2.122-9.547-5.304-11.668-6.365 26.519 12.022 50.21 32.177 65.414 57.989 1.414 2.475 3.536 8.133 5.304 8.84-0.354-1.768-1.768-2.829-3.182-5.657 0.707 0 0.707-1.061 0-2.122-1.414-1.768 0 1.414-1.415-0.354-6.365-11.669-14.144-21.923-26.165-33.237 6.718 6.365 1.768 1.768 0.353-0.354 9.193 8.133 19.801 21.923 24.398 28.995-0.707-1.061-1.061-1.768-0.707-1.768 8.486 14.497 13.79 27.58 19.094 46.32 0.354 0.354 0-1.414 0.707-0.353 3.536 14.851 4.597 27.227 4.243 38.541 2.829-19.094-3.536-48.796-14.851-72.133-1.414-2.829-1.414-0.707-2.829-3.889 0-1.061-1.061-3.182-1.768-4.597-14.144-23.337-31.47-39.956-51.978-53.038 1.414 0.707 4.243 2.829 4.244 2.475-38.188-25.105-82.387-28.641-118.807-20.862-2.475 1.061-3.536 2.122-6.365 3.536 5.304-1.768 8.486-2.122 13.437-3.183 1.061-1.061-4.597 0.354-2.122-0.707 0.354 0.354 4.95-0.707 6.011-0.353 0 0.354-1.414 0.707-1.768 1.06 11.669-2.475 23.691-2.829 33.945-2.121-6.011 0.354-16.972-0.707-20.508 1.061 3.536-0.354 8.486-0.707 11.668-0.354-4.243 0-12.022 0.354-15.558 0.707-0.354-0.354 5.657-1.061 1.768-1.06-1.768 0.354-4.597 0.354-5.657 1.414-30.409 2.829-60.111 18.74-80.973 37.481-4.243 3.536-9.193 7.425-12.375 11.314-7.779 8.84-12.729 17.68-18.387 25.459 3.536-7.425 11.315-18.74 20.508-28.287 9.193-9.547 19.094-17.68 24.398-21.923 0 1.414 8.486-5.304 11.669-7.425-2.122 1.768 1.414-0.707 2.121-0.354 11.315-6.718 20.508-9.193 30.763-13.083-2.475 0.707-4.597 1.414-4.951 1.061 2.475-0.707 3.889-1.414 3.536-1.768-9.901 2.829-25.459 9.547-37.834 16.972 22.276-15.204 50.564-24.398 78.497-24.751 27.934-0.707 55.16 6.365 76.729 17.68 14.497 6.365 28.287 18.033 39.249 29.348 3.182 2.829 0.707-0.707 5.304 4.243-1.414-0.707-2.475-1.414-0.707 0.707 2.829 3.182-0.707-2.475 3.889 3.182-0.354 0-1.768-1.768-1.768-1.061 12.376 10.961 21.923 30.762 27.58 43.846-1.414-5.304-4.95-12.729-7.779-18.033 8.486 15.558 11.315 24.751 14.851 38.541 1.414 1.061-0.707-4.95 0.707-2.121 0.354 2.122 0.707 8.84 2.122 9.9-1.061-6.718-2.829-14.851-4.243-16.265 1.061 0.707-1.768-8.133-3.536-10.254-0.707-5.657-5.657-15.558-9.901-22.984-15.204-29.702-42.431-54.099-72.839-67.536 0-0.707-1.768-1.414-2.476-2.121-30.055-12.729-66.122-16.265-100.773-8.133-35.006 8.486-67.889 28.641-91.227 57.636 1.061-3.536 9.901-10.254 10.255-13.083-10.254 10.961-21.215 25.459-28.641 41.016-7.779 15.558-12.022 31.47-13.79 43.138" fill="#1c4b82" fill-rule="nonzero" stroke="none" stroke-width="1" stroke-linecap="butt" stroke-linejoin="miter" stroke-miterlimit="10" stroke-dasharray="" stroke-dashoffset="0" font-family="none" font-weight="none" font-size="none" text-anchor="none" style="mix-blend-mode: normal" data-fill-palette-color="tertiary"></path></g><g transform="matrix(1,0,0,1,48.000000000000014,151.4066716875)"><svg viewBox="0 0 223.99999999999997 57.186656625" height="57.186656625" width="223.99999999999997"><g><svg viewBox="0 0 223.99999999999997 57.186656625" height="57.186656625" width="223.99999999999997"><g><svg viewBox="0 0 223.99999999999997 57.186656625" height="57.186656625" width="223.99999999999997"><g><svg viewBox="0 0 223.99999999999997 57.186656625" height="57.186656625" width="223.99999999999997"><g id="textblocktransform"><svg viewBox="0 0 223.99999999999997 57.186656625" height="57.186656625" width="223.99999999999997" id="textblock"><g><svg viewBox="0 0 223.99999999999997 30.843749999999996" height="30.843749999999996" width="223.99999999999997"><g transform="matrix(1,0,0,1,0,0)"><svg width="223.99999999999997" viewBox="3.25 -38.7 358.37 49.35" height="30.843749999999996" data-palette-color="#1c4b82"><path d="M12.2-34.85L18.5-15.6 19-15.6 26.3-34.6 33.2-34.4 33.4-12.9 34.35 0 27.6 0 27.85-13 27.3-26.15 21.3-9.6 15.15-9.3 9.55-26.15 9.1-13 9.45 0 3.25 0 3.95-12.15 4.25-33.6 12.2-34.85ZM41.35-34.5L52.2-34.5Q57-34.5 59.8-32.33 62.6-30.15 62.6-26.5L62.6-26.5Q62.6-20.65 57.8-18.35L57.8-18.35Q64.3-16.1 64.3-10.05L64.3-10.05Q64.3-5.5 60.4-2.48 56.5 0.55 50.6 0.55L50.6 0.55Q47.5 0.55 41.35 0L41.35 0 41.95-12.15 41.35-34.5ZM51.55-14.85L51.55-14.85 47.5-14.85 47.45-13 47.8-4.85Q50.7-4.6 52.25-4.6L52.25-4.6Q54.9-4.6 56.37-5.93 57.85-7.25 57.85-9.8 57.85-12.35 56.35-13.6 54.85-14.85 51.55-14.85ZM50.4-29.45L50.4-29.45 47.95-29.45 47.65-19.7 50.9-19.7Q53.45-19.7 54.8-21.08 56.15-22.45 56.15-25L56.15-25Q56.15-29.45 50.4-29.45ZM88.29 0.55L88.29 0.55Q84.74 0.55 78.04 0L78.04 0 78.64-12.15 78.04-34.5 91.39-34.5Q98.14-34.5 101.94-30.45 105.74-26.4 105.74-19.2L105.74-19.2Q105.74-10.1 101.04-4.78 96.34 0.55 88.29 0.55ZM89.59-29.1L89.59-29.1Q86.29-29.1 84.94-29.05L84.94-29.05 84.44-13 84.79-4.9Q88.99-4.6 90.44-4.6L90.44-4.6Q94.39-4.6 96.67-7.8 98.94-11 98.94-17.1 98.94-23.2 96.72-26.15 94.49-29.1 89.59-29.1ZM119.14-5.1L119.14-5.1Q120.59-5.1 122.19-5.85 123.79-6.6 124.69-7.35L124.69-7.35 125.59-8.1 127.89-5.3Q127.39-4.45 126.34-3.35 125.29-2.25 124.22-1.48 123.14-0.7 121.37-0.08 119.59 0.55 117.69 0.55L117.69 0.55Q113.64 0.55 111.09-2.53 108.54-5.6 108.54-10.45L108.54-10.45Q108.54-16.55 112.09-21.15 115.64-25.75 120.39-25.75L120.39-25.75Q124.04-25.75 126.07-23.7 128.09-21.65 128.09-17.95L128.09-17.95Q128.09-15.75 127.34-12.95L127.34-12.95 126.34-11.9 113.84-10.75Q114.69-5.1 119.14-5.1ZM119.14-20.6L119.14-20.6Q116.94-20.6 115.44-18.82 113.94-17.05 113.69-14.3L113.69-14.3 122.19-15.35Q122.34-16.5 122.34-17.25L122.34-17.25Q122.34-20.6 119.14-20.6ZM139.09-14.4L140.94-6.25 141.59-6.25 143.24-13.1 145.94-25.45 152.14-24.7 148.39-12.3 145.24-0.6 136.69 0.15 133.74-12 130.14-24.15 136.94-25.4 139.09-14.4ZM164.44-5.1L164.44-5.1Q165.89-5.1 167.49-5.85 169.09-6.6 169.99-7.35L169.99-7.35 170.89-8.1 173.19-5.3Q172.69-4.45 171.64-3.35 170.59-2.25 169.51-1.48 168.44-0.7 166.66-0.08 164.89 0.55 162.99 0.55L162.99 0.55Q158.94 0.55 156.39-2.53 153.84-5.6 153.84-10.45L153.84-10.45Q153.84-16.55 157.39-21.15 160.94-25.75 165.69-25.75L165.69-25.75Q169.34-25.75 171.36-23.7 173.39-21.65 173.39-17.95L173.39-17.95Q173.39-15.75 172.64-12.95L172.64-12.95 171.64-11.9 159.14-10.75Q159.99-5.1 164.44-5.1ZM164.44-20.6L164.44-20.6Q162.24-20.6 160.74-18.82 159.24-17.05 158.99-14.3L158.99-14.3 167.49-15.35Q167.64-16.5 167.64-17.25L167.64-17.25Q167.64-20.6 164.44-20.6ZM177.73-37.45L184.58-38.7 183.93-13 184.48-1.25 177.73 0 178.33-12.15 177.73-37.45ZM188.88-10.45Q188.88-16.85 192.33-21.3 195.78-25.75 200.41-25.75 205.03-25.75 207.61-22.75 210.18-19.75 210.18-14.8L210.18-14.8Q210.18-8.2 206.86-3.83 203.53 0.55 198.48 0.55L198.48 0.55Q194.33 0.55 191.61-2.58 188.88-5.7 188.88-10.45L188.88-10.45ZM204.58-12.2L204.58-12.2Q204.58-19.45 199.63-19.45L199.63-19.45Q194.48-19.45 194.48-12.65L194.48-12.65Q194.48-9.1 195.93-7.1 197.38-5.1 199.76-5.1 202.13-5.1 203.36-6.93 204.58-8.75 204.58-12.2ZM227.83-25.25L227.83-25.25Q231.03-25.25 233.2-22.45 235.38-19.65 235.38-14.9L235.38-14.9Q235.38-8.25 231.95-4.13 228.53 0 223.43 0L223.43 0Q222.38 0 221.08-0.15L221.08-0.15 221.33 9.4 214.48 10.65 215.13-12.15 215.18-12.15Q214.98-18.85 214.08-24.15L214.08-24.15 220.13-25.45Q220.43-22.8 220.63-20.2L220.63-20.2Q220.73-20.45 221.65-21.58 222.58-22.7 224.38-23.98 226.18-25.25 227.83-25.25ZM225.88-18.75L225.88-18.75Q223.23-18.75 220.73-17.3L220.73-17.3 220.73-13 220.93-5.85Q223.63-5.4 225.03-5.4L225.03-5.4Q229.83-5.4 229.83-12.08 229.83-18.75 225.88-18.75ZM254.03-12.65Q254.03-16.1 253.43-17.25 252.83-18.4 250.63-18.4 248.43-18.4 245.63-16.65L245.63-16.65 245.63-13 246.18-1.25 239.48 0 240.08-12.15Q239.88-18.85 238.98-24.15L238.98-24.15 245.03-25.45Q245.38-22.55 245.53-19.8L245.53-19.8Q246.28-20.8 247.23-21.78 248.18-22.75 250.23-23.98 252.28-25.2 254.38-25.2 256.48-25.2 257.93-23.85 259.38-22.5 259.78-20.15L259.78-20.15Q263.93-25.2 268.18-25.2L268.18-25.2Q270.83-25.2 272.38-23.43 273.93-21.65 273.93-18.6L273.93-18.6 273.63-13 274.18-1 267.43 0.25 268.03-12.65Q268.03-16.1 267.43-17.25 266.83-18.4 264.68-18.4 262.53-18.4 259.83-16.75L259.83-16.75 259.63-13 260.18-1 253.43 0.25 254.03-12.65ZM288.67-5.1L288.67-5.1Q290.12-5.1 291.72-5.85 293.32-6.6 294.22-7.35L294.22-7.35 295.12-8.1 297.42-5.3Q296.92-4.45 295.87-3.35 294.82-2.25 293.75-1.48 292.67-0.7 290.9-0.08 289.12 0.55 287.22 0.55L287.22 0.55Q283.17 0.55 280.62-2.53 278.07-5.6 278.07-10.45L278.07-10.45Q278.07-16.55 281.62-21.15 285.17-25.75 289.92-25.75L289.92-25.75Q293.57-25.75 295.6-23.7 297.62-21.65 297.62-17.95L297.62-17.95Q297.62-15.75 296.87-12.95L296.87-12.95 295.87-11.9 283.37-10.75Q284.22-5.1 288.67-5.1ZM288.67-20.6L288.67-20.6Q286.47-20.6 284.97-18.82 283.47-17.05 283.22-14.3L283.22-14.3 291.72-15.35Q291.87-16.5 291.87-17.25L291.87-17.25Q291.87-20.6 288.67-20.6ZM316.47-12.65Q316.47-16.1 315.87-17.25 315.27-18.4 313.07-18.4 310.87-18.4 308.07-16.65L308.07-16.65 308.07-13 308.62-1.25 301.92 0 302.52-12.15Q302.32-18.85 301.42-24.15L301.42-24.15 307.47-25.45Q307.82-22.55 307.97-19.8L307.97-19.8Q308.72-20.8 309.67-21.78 310.62-22.75 312.67-23.98 314.72-25.2 317-25.2 319.27-25.2 320.82-23.43 322.37-21.65 322.37-18.6L322.37-18.6 322.07-13 322.62-1 315.87 0.25 316.47-12.65ZM327.17-24.2L330.07-24.2 330.07-29.65 336.82-30.95 336.17-24.2 342.22-24.2 341.67-20.1 335.97-20.1 335.72-9.65Q335.72-7.3 336.17-6.53 336.62-5.75 337.82-5.75 339.02-5.75 341.02-6.3L341.02-6.3 341.32-2.75Q338.02 0 335.52 0 333.02 0 331.42-1.83 329.82-3.65 329.82-6.6L329.82-6.6 330.12-12.2 330.07-20.1 326.62-20.1 327.17-24.2ZM353.42-4.65L353.42-4.65Q356.02-4.65 356.02-6.95L356.02-6.95Q356.02-7.75 354.89-8.45 353.77-9.15 352.14-9.85 350.52-10.55 348.89-11.43 347.27-12.3 346.14-13.85 345.02-15.4 345.02-17.4L345.02-17.4Q345.02-20.75 347.97-23.25 350.92-25.75 354.77-25.75L354.77-25.75Q356.57-25.75 358.29-25.33 360.02-24.9 361.62-24L361.62-24 358.27-17.9Q357.92-18.2 357.37-18.65 356.82-19.1 355.29-19.83 353.77-20.55 352.59-20.55 351.42-20.55 350.79-20.03 350.17-19.5 350.17-18.57 350.17-17.65 351.89-16.73 353.62-15.8 355.67-15.03 357.72-14.25 359.44-12.48 361.17-10.7 361.17-8.25L361.17-8.25Q361.17-4.75 358.29-2.1 355.42 0.55 351.67 0.55L351.67 0.55Q349.27 0.55 347.19-0.5 345.12-1.55 344.22-2.6L344.22-2.6 343.32-3.65 347.27-8.25Q347.57-7.85 348.12-7.25 348.67-6.65 350.29-5.65 351.92-4.65 353.42-4.65Z" opacity="1" transform="matrix(1,0,0,1,0,0)" fill="#1c4b82" class="wordmark-text-0" data-fill-palette-color="primary" id="text-0"></path></svg></g></svg></g><g transform="matrix(1,0,0,1,0,38.125219124999994)"><svg viewBox="0 0 223.99999999999997 19.061437499999997" height="19.061437499999997" width="223.99999999999997"><g transform="matrix(1,0,0,1,0,0)"><svg width="223.99999999999997" viewBox="3 -36 537.04 45.7" height="19.061437499999997" data-palette-color="#1c4b82"><path d="M10.65-16.55L10.65-16.55 10.65-20.25Q13.15-20.25 14.55-21.75 15.95-23.25 15.95-25.95L15.95-25.95 20.5-25.95Q20.5-23.25 19.23-21.13 17.95-19 15.7-17.78 13.45-16.55 10.65-16.55ZM11.15 0L6.3 0 6.3-3.95 11.15-3.95 11.15 0ZM11.15-16.3L6.3-16.3 6.3-20.25 11.15-20.25 11.15-16.3ZM21-9.35L16.45-9.35 16.45-10.55 21-10.55 21-9.35ZM21-10.5L16.45-10.5Q16.45-13.25 15.05-14.78 13.65-16.3 11.15-16.3L11.15-16.3 11.15-20Q13.95-20 16.2-18.75 18.45-17.5 19.73-15.35 21-13.2 21-10.5L21-10.5ZM10.65-31.3L6.3-31.3 6.3-35.25 10.65-35.25 10.65-31.3ZM20.5-25.9L20.5-25.9 15.95-25.9Q15.95-28.5 14.55-29.9 13.15-31.3 10.65-31.3L10.65-31.3 10.65-35.25Q13.55-35.25 15.78-34.08 18-32.9 19.25-30.78 20.5-28.65 20.5-25.9ZM16.45-9.4L21-9.4Q21-6.6 19.75-4.5 18.5-2.4 16.28-1.2 14.05 0 11.15 0L11.15 0 11.15-3.95Q13.65-3.95 15.05-5.38 16.45-6.8 16.45-9.4L16.45-9.4ZM7.55 0L3 0 3-35.25 7.55-35.25 7.55 0ZM34.29 0L29.74 0 29.74-25.25 34.29-25.25 34.29 0ZM34.29-16.9L32.24-16.9Q32.24-19.45 33.09-21.48 33.94-23.5 35.42-24.65 36.89-25.8 38.69-25.8L38.69-25.8 38.29-21.55Q36.54-21.55 35.42-20.23 34.29-18.9 34.29-16.9L34.29-16.9ZM42.84-24.2L41.29-20.4Q40.69-20.9 39.87-21.23 39.04-21.55 38.29-21.55L38.29-21.55 38.69-25.8Q39.84-25.8 40.94-25.38 42.04-24.95 42.84-24.2L42.84-24.2ZM54.93 0L50.38 0 50.38-25.25 54.93-25.25 54.93 0ZM52.63-28.6L52.63-28.6Q51.38-28.6 50.53-29.45 49.68-30.3 49.68-31.55L49.68-31.55Q49.68-32.8 50.53-33.68 51.38-34.55 52.63-34.55L52.63-34.55Q53.88-34.55 54.76-33.68 55.63-32.8 55.63-31.55L55.63-31.55Q55.63-30.3 54.76-29.45 53.88-28.6 52.63-28.6ZM69.47 0L64.92 0 64.92-25.25 69.47-25.25 69.47 0ZM83.52 0L78.97 0 78.97-17.2 83.52-17.2 83.52 0ZM83.52-17.2L78.97-17.2Q78.97-19.3 77.67-20.63 76.37-21.95 74.32-21.95L74.32-21.95 75.47-26Q77.77-26 79.6-24.85 81.42-23.7 82.47-21.7 83.52-19.7 83.52-17.2L83.52-17.2ZM69.47-17.1L67.47-17.1Q67.47-19.65 68.52-21.68 69.57-23.7 71.37-24.85 73.17-26 75.47-26L75.47-26 74.32-21.95Q72.17-21.95 70.82-20.6 69.47-19.25 69.47-17.1L69.47-17.1ZM110.01 0.9L105.46 0.9 105.46-25.25 110.01-25.25 110.01 0.9ZM95.96-8.7L91.41-8.7 91.41-17.2 95.96-17.2 95.96-8.7ZM95.96-17.2L95.96-17.2 91.41-17.2Q91.41-19.7 92.46-21.7 93.51-23.7 95.34-24.85 97.16-26 99.51-26L99.51-26 100.66-21.95Q98.61-21.95 97.29-20.63 95.96-19.3 95.96-17.2ZM107.46-17.1L107.46-17.1 105.46-17.1Q105.46-19.25 104.11-20.6 102.76-21.95 100.66-21.95L100.66-21.95 99.51-26Q101.76-26 103.59-24.85 105.41-23.7 106.44-21.68 107.46-19.65 107.46-17.1ZM91.41-8.7L95.96-8.7Q95.96-6.6 97.29-5.28 98.61-3.95 100.66-3.95L100.66-3.95 99.51 0.1Q97.16 0.1 95.34-1.05 93.51-2.2 92.46-4.2 91.41-6.2 91.41-8.7L91.41-8.7ZM105.46-8.85L107.46-8.85Q107.46-6.3 106.44-4.28 105.41-2.25 103.59-1.07 101.76 0.1 99.51 0.1L99.51 0.1 100.66-3.95Q102.76-3.95 104.11-5.3 105.46-6.65 105.46-8.85L105.46-8.85ZM105.46 0.75L110.01 0.75Q110.01 3.3 108.81 5.33 107.61 7.35 105.51 8.53 103.41 9.7 100.76 9.7L100.76 9.7 100.76 5.75Q102.81 5.75 104.14 4.33 105.46 2.9 105.46 0.75L105.46 0.75ZM91.81 2.25L96.01 1.4Q96.26 3.6 97.61 4.67 98.96 5.75 100.76 5.75L100.76 5.75 100.76 9.7Q98.46 9.7 96.51 8.75 94.56 7.8 93.34 6.1 92.11 4.4 91.81 2.25L91.81 2.25ZM137.45 0L132.9 0 132.9-25.25 137.45-25.25 137.45 0ZM135.15-28.6L135.15-28.6Q133.9-28.6 133.05-29.45 132.2-30.3 132.2-31.55L132.2-31.55Q132.2-32.8 133.05-33.68 133.9-34.55 135.15-34.55L135.15-34.55Q136.4-34.55 137.27-33.68 138.15-32.8 138.15-31.55L138.15-31.55Q138.15-30.3 137.27-29.45 136.4-28.6 135.15-28.6ZM151.99 0L147.44 0 147.44-25.25 151.99-25.25 151.99 0ZM166.04 0L161.49 0 161.49-17.2 166.04-17.2 166.04 0ZM166.04-17.2L161.49-17.2Q161.49-19.3 160.19-20.63 158.89-21.95 156.84-21.95L156.84-21.95 157.99-26Q160.29-26 162.11-24.85 163.94-23.7 164.99-21.7 166.04-19.7 166.04-17.2L166.04-17.2ZM151.99-17.1L149.99-17.1Q149.99-19.65 151.04-21.68 152.09-23.7 153.89-24.85 155.69-26 157.99-26L157.99-26 156.84-21.95Q154.69-21.95 153.34-20.6 151.99-19.25 151.99-17.1L151.99-17.1ZM179.23 0L174.68 0 174.68-25.25 179.23-25.25 179.23 0ZM193.28 0L188.73 0 188.73-17.2 193.28-17.2 193.28 0ZM193.28-17.2L188.73-17.2Q188.73-19.3 187.43-20.63 186.13-21.95 184.08-21.95L184.08-21.95 185.23-26Q187.53-26 189.35-24.85 191.18-23.7 192.23-21.7 193.28-19.7 193.28-17.2L193.28-17.2ZM179.23-17.1L177.23-17.1Q177.23-19.65 178.28-21.68 179.33-23.7 181.13-24.85 182.93-26 185.23-26L185.23-26 184.08-21.95Q181.93-21.95 180.58-20.6 179.23-19.25 179.23-17.1L179.23-17.1ZM219.27-8.95L214.72-8.95 214.72-16.3 219.27-16.3 219.27-8.95ZM205.22-8.95L200.67-8.95 200.67-16.3 205.22-16.3 205.22-8.95ZM210.12-22.05L209.82-22.05 209.82-26 210.12-26 210.12-22.05ZM210.12 0.75L209.82 0.75 209.82-3.2 210.12-3.2 210.12 0.75ZM205.22-16.25L200.67-16.25Q200.67-19.05 201.89-21.25 203.12-23.45 205.19-24.73 207.27-26 209.92-26L209.92-26 209.92-22.05Q207.72-22.05 206.47-20.55 205.22-19.05 205.22-16.25L205.22-16.25ZM219.27-16.25L219.27-16.25 214.72-16.25Q214.72-19.05 213.49-20.55 212.27-22.05 210.02-22.05L210.02-22.05 210.02-26Q212.67-26 214.74-24.73 216.82-23.45 218.04-21.25 219.27-19.05 219.27-16.25ZM200.67-9L200.67-9 205.22-9Q205.22-6.25 206.47-4.73 207.72-3.2 209.92-3.2L209.92-3.2 209.92 0.75Q207.27 0.75 205.19-0.53 203.12-1.8 201.89-4 200.67-6.2 200.67-9ZM214.72-9L219.27-9Q219.27-6.2 218.04-4 216.82-1.8 214.74-0.53 212.67 0.75 210.02 0.75L210.02 0.75 210.02-3.2Q212.27-3.2 213.49-4.73 214.72-6.25 214.72-9L214.72-9ZM238.86 0L234.66 0 242.46-25.25 247.01-25.25 238.86 0ZM238.36 0L234.21 0 226.01-25.25 230.56-25.25 238.36 0ZM271.95 0L267.4 0 267.4-17.2 271.95-17.2 271.95 0ZM261.3 0.75L261.3 0.75 261.65-3Q263.45-3 264.73-3.9 266-4.8 266.7-6.55 267.4-8.3 267.4-10.7L267.4-10.7 269.65-10.8Q269.65-7.4 268.55-4.8 267.45-2.2 265.58-0.73 263.7 0.75 261.3 0.75ZM261.65-3L261.3 0.75Q259.05 0.75 257.2-0.3 255.35-1.35 254.25-3.18 253.15-5 253.15-7.25L253.15-7.25 257.45-7.4Q257.45-5.5 258.73-4.25 260-3 261.65-3L261.65-3ZM257.45-7.4L253.15-7.25Q253.15-9.6 254.33-11.38 255.5-13.15 257.5-14.2 259.5-15.25 262.05-15.25L262.05-15.25 262.3-11.75Q260.2-11.75 258.83-10.53 257.45-9.3 257.45-7.4L257.45-7.4ZM269.75-11.75L262.3-11.75 262.05-15.25 269.75-15.25 269.75-11.75ZM269.65-10.8L267.4-10.7 267.4-17.15 269.65-17.15 269.65-10.8ZM271.95-17.1L271.95-17.1 267.4-17.1Q267.4-19.3 266.08-20.7 264.75-22.1 262.65-22.1L262.65-22.1 262.65-26Q265.35-26 267.43-24.85 269.5-23.7 270.73-21.68 271.95-19.65 271.95-17.1ZM257.95-17.7L257.95-17.7 253.75-18.55Q254.05-20.8 255.28-22.45 256.5-24.1 258.43-25.05 260.35-26 262.7-26L262.7-26 262.7-22.1Q260.85-22.1 259.53-21.03 258.2-19.95 257.95-17.7ZM286.79-7.65L282.24-7.65 282.24-35.3 286.79-35.25 286.79-7.65ZM293.09-21.5L279.34-21.5 279.34-25.25 293.09-25.25 293.09-21.5ZM282.24-7.7L282.24-7.7 286.79-7.7Q286.79-6.25 287.19-5.25 287.59-4.25 288.34-3.73 289.09-3.2 290.14-3.2L290.14-3.2 289.74 0.75Q286.24 0.75 284.24-1.48 282.24-3.7 282.24-7.7ZM292.49-4.05L292.49-4.05 294.29-0.8Q293.29-0.05 292.12 0.35 290.94 0.75 289.74 0.75L289.74 0.75 290.14-3.2Q290.79-3.2 291.37-3.43 291.94-3.65 292.49-4.05ZM306.58 0L302.03 0 302.03-25.25 306.58-25.25 306.58 0ZM304.28-28.6L304.28-28.6Q303.03-28.6 302.18-29.45 301.33-30.3 301.33-31.55L301.33-31.55Q301.33-32.8 302.18-33.68 303.03-34.55 304.28-34.55L304.28-34.55Q305.53-34.55 306.41-33.68 307.28-32.8 307.28-31.55L307.28-31.55Q307.28-30.3 306.41-29.45 305.53-28.6 304.28-28.6ZM333.82-8.95L329.27-8.95 329.27-16.3 333.82-16.3 333.82-8.95ZM319.77-8.95L315.22-8.95 315.22-16.3 319.77-16.3 319.77-8.95ZM324.67-22.05L324.37-22.05 324.37-26 324.67-26 324.67-22.05ZM324.67 0.75L324.37 0.75 324.37-3.2 324.67-3.2 324.67 0.75ZM319.77-16.25L315.22-16.25Q315.22-19.05 316.45-21.25 317.67-23.45 319.75-24.73 321.82-26 324.47-26L324.47-26 324.47-22.05Q322.27-22.05 321.02-20.55 319.77-19.05 319.77-16.25L319.77-16.25ZM333.82-16.25L333.82-16.25 329.27-16.25Q329.27-19.05 328.05-20.55 326.82-22.05 324.57-22.05L324.57-22.05 324.57-26Q327.22-26 329.3-24.73 331.37-23.45 332.6-21.25 333.82-19.05 333.82-16.25ZM315.22-9L315.22-9 319.77-9Q319.77-6.25 321.02-4.73 322.27-3.2 324.47-3.2L324.47-3.2 324.47 0.75Q321.82 0.75 319.75-0.53 317.67-1.8 316.45-4 315.22-6.2 315.22-9ZM329.27-9L333.82-9Q333.82-6.2 332.6-4 331.37-1.8 329.3-0.53 327.22 0.75 324.57 0.75L324.57 0.75 324.57-3.2Q326.82-3.2 328.05-4.73 329.27-6.25 329.27-9L329.27-9ZM346.51 0L341.96 0 341.96-25.25 346.51-25.25 346.51 0ZM360.56 0L356.01 0 356.01-17.2 360.56-17.2 360.56 0ZM360.56-17.2L356.01-17.2Q356.01-19.3 354.71-20.63 353.41-21.95 351.36-21.95L351.36-21.95 352.51-26Q354.81-26 356.64-24.85 358.46-23.7 359.51-21.7 360.56-19.7 360.56-17.2L360.56-17.2ZM346.51-17.1L344.51-17.1Q344.51-19.65 345.56-21.68 346.61-23.7 348.41-24.85 350.21-26 352.51-26L352.51-26 351.36-21.95Q349.21-21.95 347.86-20.6 346.51-19.25 346.51-17.1L346.51-17.1ZM405.9 0L401.7 0 408.1-25.25 412.65-25.25 405.9 0ZM391.65 0L387.45 0 380.7-25.25 385.25-25.25 391.65 0ZM392.05 0L388.15 0 394.65-25.25 398.65-25.25 392.05 0ZM405.2 0L401.35 0 394.7-25.25 398.7-25.25 405.2 0ZM425.19 0L420.64 0 420.64-25.25 425.19-25.25 425.19 0ZM422.89-28.6L422.89-28.6Q421.64-28.6 420.79-29.45 419.94-30.3 419.94-31.55L419.94-31.55Q419.94-32.8 420.79-33.68 421.64-34.55 422.89-34.55L422.89-34.55Q424.14-34.55 425.01-33.68 425.89-32.8 425.89-31.55L425.89-31.55Q425.89-30.3 425.01-29.45 424.14-28.6 422.89-28.6ZM441.38-7.65L436.83-7.65 436.83-35.3 441.38-35.25 441.38-7.65ZM447.68-21.5L433.93-21.5 433.93-25.25 447.68-25.25 447.68-21.5ZM436.83-7.7L436.83-7.7 441.38-7.7Q441.38-6.25 441.78-5.25 442.18-4.25 442.93-3.73 443.68-3.2 444.73-3.2L444.73-3.2 444.33 0.75Q440.83 0.75 438.83-1.48 436.83-3.7 436.83-7.7ZM447.08-4.05L447.08-4.05 448.88-0.8Q447.88-0.05 446.7 0.35 445.53 0.75 444.33 0.75L444.33 0.75 444.73-3.2Q445.38-3.2 445.95-3.43 446.53-3.65 447.08-4.05ZM460.67 0L456.12 0 456.12-25.25 460.67-25.25 460.67 0ZM474.72 0L470.17 0 470.17-17.2 474.72-17.2 474.72 0ZM474.72-17.2L470.17-17.2Q470.17-19.3 468.87-20.63 467.57-21.95 465.52-21.95L465.52-21.95 466.67-26Q468.97-26 470.79-24.85 472.62-23.7 473.67-21.7 474.72-19.7 474.72-17.2L474.72-17.2ZM460.67-17.1L458.67-17.1Q458.67-19.65 459.72-21.68 460.77-23.7 462.57-24.85 464.37-26 466.67-26L466.67-26 465.52-21.95Q463.37-21.95 462.02-20.6 460.67-19.25 460.67-17.1L460.67-17.1ZM460.67 0L456.12 0 456.12-36 460.67-36 460.67 0ZM509.65-25.25L514.2-25.25 514.2 0 509.65 0 509.65-25.25ZM495.6-25.25L500.15-25.25 500.15-8.05 495.6-8.05 495.6-25.25ZM495.6-8.05L500.15-8.05Q500.15-5.95 501.48-4.63 502.8-3.3 504.85-3.3L504.85-3.3 503.7 0.75Q501.35 0.75 499.53-0.4 497.7-1.55 496.65-3.55 495.6-5.55 495.6-8.05L495.6-8.05ZM509.65-8.2L511.65-8.2Q511.65-5.65 510.63-3.63 509.6-1.6 507.78-0.43 505.95 0.75 503.7 0.75L503.7 0.75 504.85-3.3Q506.95-3.3 508.3-4.65 509.65-6 509.65-8.2L509.65-8.2ZM535.54-6.5L535.54-6.5Q535.54-7.75 534.64-8.58 533.74-9.4 532.32-10.08 530.89-10.75 529.32-11.45 527.74-12.15 526.32-13.08 524.89-14 523.99-15.43 523.09-16.85 523.09-18.9L523.09-18.9Q523.09-18.9 523.52-18.9 523.94-18.9 524.62-18.9 525.29-18.9 525.94-18.9 526.59-18.9 527.04-18.9 527.49-18.9 527.49-18.9L527.49-18.9Q527.49-17.65 528.39-16.82 529.29-16 530.72-15.35 532.14-14.7 533.74-13.98 535.34-13.25 536.74-12.3 538.14-11.35 539.07-9.98 539.99-8.6 539.99-6.5L539.99-6.5Q539.99-6.5 539.54-6.5 539.09-6.5 538.42-6.5 537.74-6.5 537.09-6.5 536.44-6.5 535.99-6.5 535.54-6.5 535.54-6.5ZM531.29 0.75L531.29 0.75 531.29-3.2Q533.14-3.2 534.34-4.13 535.54-5.05 535.54-6.5L535.54-6.5 539.99-6.5Q539.99-4.4 538.87-2.75 537.74-1.1 535.79-0.18 533.84 0.75 531.29 0.75ZM527.49-18.9L523.09-18.9Q523.09-20.95 524.12-22.58 525.14-24.2 526.99-25.13 528.84-26.05 531.09-26.05L531.09-26.05 531.09-22.1Q529.54-22.1 528.52-21.2 527.49-20.3 527.49-18.9L527.49-18.9ZM522.34-6.7L526.54-7.55Q526.79-5.35 528.14-4.28 529.49-3.2 531.29-3.2L531.29-3.2 531.29 0.75Q528.99 0.75 527.04-0.2 525.09-1.15 523.87-2.85 522.64-4.55 522.34-6.7L522.34-6.7ZM540.04-18.6L535.79-17.75Q535.54-20 534.22-21.05 532.89-22.1 531.09-22.1L531.09-22.1 531.09-26.05Q533.44-26.05 535.34-25.1 537.24-24.15 538.49-22.48 539.74-20.8 540.04-18.6L540.04-18.6Z" opacity="1" transform="matrix(1,0,0,1,0,0)" fill="#1c4b82" class="slogan-text-1" data-fill-palette-color="secondary" id="text-1"></path></svg></g></svg></g></svg></g></svg></g></svg></g></svg></g></svg></g></svg></g><defs></defs></svg><rect width="320" height="360" fill="none" stroke="none" visibility="hidden"></rect></g></svg></g></svg>